<svg width="680" height="454" viewBox="0 0 680 454" fill="none" xmlns="http://www.w3.org/2000/svg">
<g clip-path="url(#clip0_4106_548)">
<rect width="680" height="454" rx="10" fill="#EDF4FC"/>
<path opacity="0.3" d="M2.78362e-05 402L0 2.29673e-07M7.96029 402L7.96027 2.29673e-07M15.9206 402L15.9205 2.29673e-07M23.8808 402L23.8808 2.29673e-07M31.8411 402L31.8411 2.29673e-07M39.8014 402L39.8013 2.29673e-07M47.7616 402L47.7616 2.29673e-07M55.7219 402L55.7219 2.29673e-07M63.6822 402L63.6821 2.29673e-07M71.6424 402L71.6424 2.29673e-07M79.6027 402L79.6027 2.29673e-07M87.563 402L87.5629 2.29673e-07M95.5232 402L95.5232 2.29673e-07M103.484 402L103.483 2.29673e-07M111.444 402L111.444 2.29673e-07M119.404 402L119.404 2.29673e-07M127.364 402L127.364 2.29673e-07M135.325 402L135.325 2.29673e-07M143.285 402L143.285 2.29673e-07M151.245 402L151.245 2.29673e-07M159.205 402L159.205 2.29673e-07M167.166 402L167.166 2.29673e-07M175.126 402L175.126 2.29673e-07M183.086 402L183.086 2.29673e-07M191.046 402L191.046 2.29673e-07M199.007 402L199.007 2.29673e-07M206.967 402L206.967 2.29673e-07M214.927 402L214.927 2.29673e-07M222.887 402L222.887 2.29673e-07M230.848 402L230.848 2.29673e-07M238.808 402L238.808 2.29673e-07M246.768 402L246.768 2.29673e-07M254.729 402L254.728 2.29673e-07M262.689 402L262.689 2.29673e-07M270.649 402V2.29673e-07M278.609 402L278.609 2.29673e-07M286.57 402L286.57 2.29673e-07M294.53 402L294.53 2.29673e-07M302.49 402L302.49 2.29673e-07M310.45 402L310.45 2.29673e-07M318.411 402L318.411 2.29673e-07M326.371 402L326.371 2.29673e-07M334.331 402V2.29673e-07M342.291 402L342.291 2.29673e-07M350.252 402L350.252 2.29673e-07M358.212 402L358.212 2.29673e-07M366.172 402L366.172 2.29673e-07M374.132 402L374.132 2.29673e-07M382.093 402L382.093 2.29673e-07M390.053 402L390.053 2.29673e-07M398.013 402V2.29673e-07M405.974 402L405.973 2.29673e-07M413.934 402L413.934 2.29673e-07M421.894 402L421.894 2.29673e-07M429.854 402L429.854 2.29673e-07M437.815 402L437.815 2.29673e-07M445.775 402L445.775 2.29673e-07M453.735 402L453.735 2.29673e-07M461.695 402L461.695 2.29673e-07M469.656 402L469.656 2.29673e-07M477.616 402L477.616 2.29673e-07M485.576 402L485.576 2.29673e-07M493.537 402L493.537 2.29673e-07M501.497 402L501.497 2.29673e-07M509.457 402L509.457 2.29673e-07M517.418 402L517.417 2.29673e-07M525.378 402L525.378 2.29673e-07M533.338 402L533.338 2.29673e-07M541.298 402L541.298 2.29673e-07M549.259 402L549.259 2.29673e-07M557.219 402L557.219 2.29673e-07M565.179 402L565.179 2.29673e-07M573.14 402L573.139 2.29673e-07M581.1 402L581.1 2.29673e-07M589.06 402L589.06 2.29673e-07M597.02 402L597.02 2.29673e-07M604.981 402L604.981 2.29673e-07M612.941 402L612.941 2.29673e-07M620.901 402L620.901 2.29673e-07M628.862 402L628.862 2.29673e-07M636.822 402V2.29673e-07M644.782 402V2.29673e-07M652.742 402V2.29673e-07M660.703 402V2.29673e-07M668.663 402V2.29673e-07M676.623 402V2.29673e-07M684.584 402L684.584 2.29673e-07M692.544 402L692.544 2.29673e-07M700.504 402L700.504 2.29673e-07M708.464 402L708.464 2.29673e-07M716.425 402L716.425 2.29673e-07M724.385 402L724.385 2.29673e-07M732.345 402L732.345 2.29673e-07M740.306 402L740.306 2.29673e-07M748.266 402L748.266 2.29673e-07M756.226 402L756.226 2.29673e-07M764.186 402L764.186 2.29673e-07M772.147 402L772.147 2.29673e-07M780.107 402L780.107 2.29673e-07M788.067 402L788.067 2.29673e-07M796.028 402L796.028 2.29673e-07M803.988 402L803.988 2.29673e-07M811.948 402L811.948 2.29673e-07M819.908 402V2.29673e-07M827.869 402V2.29673e-07M835.829 402V2.29673e-07M843.789 402V2.29673e-07M851.749 402V2.29673e-07M859.71 402V2.29673e-07M867.67 402V2.29673e-07M875.63 402V2.29673e-07M883.59 402V2.29673e-07M891.551 402V2.29673e-07M899.511 402V2.29673e-07M907.471 402V2.29673e-07M915.431 402V2.29673e-07M923.392 402V2.29673e-07M931.352 402V2.29673e-07M939.312 402V2.29673e-07M947.272 402V2.29673e-07M955.232 402V2.29673e-07M963.193 402V2.29673e-07M971.153 402V2.29673e-07M979.113 402V2.29673e-07M987.073 402V2.29673e-07M995.034 402V2.29673e-07M1002.99 402V2.29673e-07M1010.95 402V2.29673e-07M1018.91 402V2.29673e-07M1026.87 402V2.29673e-07M1034.83 402V2.29673e-07M1042.8 402V2.29673e-07M1050.76 402V2.29673e-07M1058.72 402V2.29673e-07M1066.68 402V2.29673e-07M1074.64 402V2.29673e-07M1082.6 402V2.29673e-07M1090.56 402V2.29673e-07M1098.52 402V2.29673e-07M1106.48 402V2.29673e-07M1114.44 402V2.29673e-07M1122.4 402V2.29673e-07M1130.36 402V2.29673e-07M1138.32 402V2.29673e-07M1146.28 402V2.29673e-07M1154.24 402V2.29673e-07M1162.2 402V2.29673e-07M1170.16 402V2.29673e-07M1178.12 402V2.29673e-07M1186.08 402V2.29673e-07M1194.04 402V2.29673e-07M1202 402V2.29673e-07" stroke="url(#paint0_linear_4106_548)" stroke-width="0.795455"/>
<g style="mix-blend-mode:multiply" opacity="0.05" filter="url(#filter0_f_4106_548)">
<circle cx="117.964" cy="117.964" r="117.964" transform="matrix(-1 0 0 1 789.052 245.64)" fill="#E52F0B"/>
</g>
<g style="mix-blend-mode:multiply" opacity="0.05" filter="url(#filter1_f_4106_548)">
<circle cx="117.964" cy="117.964" r="117.964" transform="matrix(-1 0 0 1 671.088 172.136)" fill="#9CE93B"/>
</g>
<g style="mix-blend-mode:multiply" opacity="0.05" filter="url(#filter2_f_4106_548)">
<circle cx="117.964" cy="117.964" r="117.964" transform="matrix(-1 0 0 1 414.928 45)" fill="#4186E0"/>
</g>
<path d="M347.722 213.623C350.684 210.268 352.481 205.86 352.481 201.033C352.481 198.558 352.009 196.194 351.15 194.026C348.188 197.381 346.391 201.788 346.391 206.616C346.391 209.09 346.863 211.455 347.722 213.623Z" fill="url(#paint1_linear_4106_548)"/>
<path d="M345.406 215.842C344.11 213.035 343.387 209.91 343.387 206.616C343.387 200.592 345.804 195.133 349.721 191.155C346.382 185.666 340.343 182 333.449 182C322.937 182 314.416 190.521 314.416 201.033C314.416 211.545 322.937 220.066 333.449 220.066C337.978 220.066 342.138 218.484 345.406 215.842Z" fill="url(#paint2_linear_4106_548)"/>
<path d="M372.334 224.356C379.43 221.59 384.457 214.69 384.457 206.616C384.457 206.112 384.438 205.612 384.399 205.118C377.304 207.884 372.276 214.784 372.276 222.858C372.276 223.362 372.296 223.861 372.334 224.356Z" fill="url(#paint3_linear_4106_548)"/>
<path d="M369.399 225.233C369.315 224.453 369.273 223.66 369.273 222.858C369.273 213.281 375.382 205.13 383.916 202.092C381.886 193.764 374.377 187.583 365.424 187.583C354.913 187.583 346.391 196.104 346.391 206.616C346.391 217.128 354.913 225.649 365.424 225.649C366.787 225.649 368.117 225.506 369.399 225.233Z" fill="url(#paint4_linear_4106_548)"/>
<path d="M410.313 223.914C410.332 223.565 410.342 223.212 410.342 222.858C410.342 212.346 401.821 203.825 391.309 203.825C380.798 203.825 372.276 212.346 372.276 222.858C372.276 229.624 375.806 235.565 381.125 238.94C383.102 237.392 385.308 236.259 387.728 235.555C390.409 234.775 393.249 234.396 396.234 234.396C397.44 234.396 398.718 234.459 400.065 234.582C400.122 232.804 400.151 230.971 400.151 229.082V223.805L403.218 223.87C405.248 223.913 406.782 223.934 407.833 223.934C408.604 223.934 409.431 223.928 410.313 223.914Z" fill="url(#paint5_linear_4106_548)"/>
<path d="M409.907 226.924C409.789 226.925 409.673 226.927 409.557 226.928C408.956 226.935 408.381 226.938 407.833 226.938C407.364 226.938 406.806 226.934 406.158 226.926C405.31 226.915 404.309 226.897 403.155 226.873V229.082C403.155 229.348 403.154 229.613 403.153 229.877C403.146 231.608 403.114 233.294 403.059 234.936C403.024 235.952 402.981 236.952 402.928 237.934C406.412 235.245 408.938 231.375 409.907 226.924Z" fill="url(#paint6_linear_4106_548)"/>
<path d="M402.909 237.949C401.874 237.796 400.884 237.675 399.939 237.586C398.616 237.462 397.381 237.399 396.234 237.399C393.505 237.399 390.95 237.746 388.567 238.439C386.972 238.903 385.489 239.585 384.118 240.485C386.337 241.391 388.765 241.891 391.309 241.891C395.675 241.891 399.697 240.421 402.909 237.949Z" fill="url(#paint7_linear_4106_548)"/>
<path d="M268 271.22C268.325 267.56 268.715 260.986 269.17 251.499C269.646 241.991 269.939 233.782 270.047 226.873C272.299 226.916 273.902 226.938 274.855 226.938C276.133 226.938 277.693 226.916 279.534 226.873L278.754 238.731L277.617 265.177L277.487 271.22C275.711 271.177 274.205 271.155 272.971 271.155C272.559 271.155 270.902 271.177 268 271.22Z" fill="#0C0B14"/>
<path d="M288.143 245.424C288.446 243.864 288.631 242.771 288.696 242.142C288.782 241.514 288.923 240.561 289.118 239.283C292.064 238.59 294.663 238.103 296.915 237.821C299.168 237.54 301.345 237.399 303.446 237.399C305.828 237.399 308.016 237.681 310.008 238.244C312.001 238.785 313.561 239.662 314.687 240.875C315.813 242.088 316.376 243.832 316.376 246.106C316.376 247.341 316.203 250.492 315.856 255.56C315.51 260.607 315.304 265.827 315.239 271.22C313.593 271.177 312.077 271.155 310.691 271.155C309.369 271.155 307.821 271.177 306.045 271.22C306.326 268.599 306.554 265.567 306.727 262.123L307.149 254.033C306.326 254.575 305.698 254.954 305.265 255.171C304.832 255.387 304.344 255.593 303.803 255.788C303.261 255.961 302.308 256.243 300.944 256.633C299.579 257.001 298.486 257.326 297.663 257.607C296.839 257.889 296.092 258.214 295.421 258.582C294.771 258.928 294.219 259.329 293.764 259.784C293.309 260.217 292.973 260.683 292.757 261.181C292.562 261.658 292.464 262.177 292.464 262.74C292.464 263.65 292.724 264.441 293.244 265.112C293.785 265.762 294.457 266.217 295.258 266.477C296.06 266.737 297.002 266.867 298.085 266.867C298.778 266.867 299.504 266.812 300.262 266.704C301.041 266.596 302.081 266.325 303.381 265.892C302.926 267.127 302.395 268.968 301.789 271.415C300.251 271.675 299.027 271.837 298.117 271.902C297.208 271.967 296.363 272 295.583 272C292.854 272 290.612 271.632 288.858 270.895C287.104 270.159 285.804 268.989 284.959 267.386C284.136 265.784 283.725 264.17 283.725 262.546C283.725 261.614 283.887 260.694 284.212 259.784C284.537 258.874 285.013 258.04 285.642 257.282C286.27 256.524 287.082 255.799 288.078 255.106C289.075 254.391 290.515 253.709 292.399 253.059C294.284 252.387 296.774 251.716 299.872 251.044C300.695 250.871 301.55 250.665 302.438 250.427C303.326 250.167 304.03 249.918 304.55 249.68C305.092 249.442 305.557 249.138 305.947 248.77C306.337 248.38 306.619 247.98 306.792 247.568C306.987 247.157 307.084 246.734 307.084 246.301C307.084 245.456 306.803 244.742 306.24 244.157C305.698 243.572 304.983 243.171 304.095 242.955C303.229 242.716 302.265 242.597 301.204 242.597C297.262 242.597 292.908 243.539 288.143 245.424Z" fill="#0C0B14"/>
<path d="M332.263 271.22C330.834 266.65 326.989 255.636 320.73 238.179C322.636 238.222 324.282 238.244 325.668 238.244C327.141 238.244 328.646 238.222 330.184 238.179L337.787 262.968L338.826 260.141L346.136 241.59C346.483 240.724 346.916 239.587 347.436 238.179C349.212 238.222 350.793 238.244 352.179 238.244C353.587 238.244 355.19 238.222 356.988 238.179L351.692 249.647L344.024 267.029L342.303 271.22C340.353 271.177 338.718 271.155 337.397 271.155C336.01 271.155 334.299 271.177 332.263 271.22Z" fill="#0C0B14"/>
<path d="M359.262 271.22C359.587 267.971 359.814 265.253 359.944 263.065C360.161 259.6 360.345 255.604 360.496 251.077C360.67 246.55 360.789 242.251 360.854 238.179C362.976 238.222 364.568 238.244 365.63 238.244C366.604 238.244 368.185 238.222 370.373 238.179C370.07 241.947 369.821 245.543 369.626 248.965C369.453 252.387 369.323 256.308 369.236 260.726C369.149 265.145 369.106 268.643 369.106 271.22C367.135 271.177 365.554 271.155 364.363 271.155C363.236 271.155 361.536 271.177 359.262 271.22Z" fill="#0C0B14"/>
<path d="M410.595 271.22C408.797 271.177 407.4 271.155 406.403 271.155C405.32 271.155 403.826 271.177 401.92 271.22L402.212 265.567C401.259 266.802 400.436 267.755 399.743 268.426C399.072 269.098 398.227 269.726 397.209 270.31C396.213 270.874 395.13 271.296 393.96 271.578C392.791 271.859 391.578 272 390.321 272C388.242 272 386.293 271.621 384.473 270.863C382.654 270.105 381.105 269.043 379.827 267.679C378.549 266.293 377.607 264.657 377.001 262.773C376.394 260.867 376.091 258.885 376.091 256.827C376.091 253.99 376.633 251.229 377.716 248.543C378.799 245.835 380.282 243.648 382.167 241.98C384.051 240.312 386.184 239.132 388.567 238.439C390.949 237.746 393.505 237.399 396.234 237.399C398.205 237.399 400.436 237.583 402.927 237.951C403.079 235.136 403.155 232.179 403.155 229.082V226.873C405.191 226.916 406.75 226.938 407.833 226.938C409.241 226.938 410.822 226.916 412.576 226.873C412.1 232.374 411.645 239.868 411.212 249.355C410.8 258.82 410.595 266.109 410.595 271.22ZM402.57 244.124C400.945 243.691 399.386 243.474 397.891 243.474C396.18 243.474 394.545 243.713 392.985 244.189C391.426 244.666 390.04 245.478 388.827 246.626C387.636 247.774 386.715 249.247 386.065 251.044C385.416 252.842 385.091 254.575 385.091 256.243C385.091 257.91 385.383 259.437 385.968 260.824C386.574 262.21 387.506 263.304 388.762 264.105C390.018 264.906 391.437 265.307 393.018 265.307C394.209 265.307 395.292 265.101 396.267 264.69C397.242 264.257 398.13 263.607 398.931 262.74C399.732 261.852 400.404 260.715 400.945 259.329C401.508 257.943 401.909 256.102 402.147 253.806C402.299 252.117 402.44 248.889 402.57 244.124Z" fill="#0C0B14"/>
</g>
<defs>
<filter id="filter0_f_4106_548" x="445.147" y="137.664" width="451.881" height="451.881" filterUnits="userSpaceOnUse" color-interpolation-filters="sRGB">
<feFlood flood-opacity="0" result="BackgroundImageFix"/>
<feBlend mode="normal" in="SourceGraphic" in2="BackgroundImageFix" result="shape"/>
<feGaussianBlur stdDeviation="53.9882" result="effect1_foregroundBlur_4106_548"/>
</filter>
<filter id="filter1_f_4106_548" x="327.183" y="64.16" width="451.881" height="451.881" filterUnits="userSpaceOnUse" color-interpolation-filters="sRGB">
<feFlood flood-opacity="0" result="BackgroundImageFix"/>
<feBlend mode="normal" in="SourceGraphic" in2="BackgroundImageFix" result="shape"/>
<feGaussianBlur stdDeviation="53.9882" result="effect1_foregroundBlur_4106_548"/>
</filter>
<filter id="filter2_f_4106_548" x="71.0237" y="-62.9763" width="451.881" height="451.881" filterUnits="userSpaceOnUse" color-interpolation-filters="sRGB">
<feFlood flood-opacity="0" result="BackgroundImageFix"/>
<feBlend mode="normal" in="SourceGraphic" in2="BackgroundImageFix" result="shape"/>
<feGaussianBlur stdDeviation="53.9882" result="effect1_foregroundBlur_4106_548"/>
</filter>
<linearGradient id="paint0_linear_4106_548" x1="645.599" y1="441.195" x2="645.599" y2="259.793" gradientUnits="userSpaceOnUse">
<stop stop-color="#8AB3E6"/>
<stop offset="1" stop-color="#8AB2E5" stop-opacity="0"/>
</linearGradient>
<linearGradient id="paint1_linear_4106_548" x1="333.195" y1="191.643" x2="333.195" y2="222.857" gradientUnits="userSpaceOnUse">
<stop stop-color="#FA3602"/>
<stop offset="1" stop-color="#B42020"/>
</linearGradient>
<linearGradient id="paint2_linear_4106_548" x1="333.195" y1="191.643" x2="333.195" y2="222.857" gradientUnits="userSpaceOnUse">
<stop stop-color="#FA3602"/>
<stop offset="1" stop-color="#B42020"/>
</linearGradient>
<linearGradient id="paint3_linear_4106_548" x1="365.17" y1="197.226" x2="365.17" y2="228.44" gradientUnits="userSpaceOnUse">
<stop stop-color="#9DEA3A"/>
<stop offset="1" stop-color="#69B44F"/>
</linearGradient>
<linearGradient id="paint4_linear_4106_548" x1="365.17" y1="197.226" x2="365.17" y2="228.44" gradientUnits="userSpaceOnUse">
<stop stop-color="#9DEA3A"/>
<stop offset="1" stop-color="#69B44F"/>
</linearGradient>
<linearGradient id="paint5_linear_4106_548" x1="391.055" y1="213.468" x2="391.055" y2="244.682" gradientUnits="userSpaceOnUse">
<stop stop-color="#44B2FD"/>
<stop offset="0.927083" stop-color="#3F6DCF"/>
</linearGradient>
<linearGradient id="paint6_linear_4106_548" x1="391.055" y1="213.468" x2="391.055" y2="244.682" gradientUnits="userSpaceOnUse">
<stop stop-color="#44B2FD"/>
<stop offset="0.927083" stop-color="#3F6DCF"/>
</linearGradient>
<linearGradient id="paint7_linear_4106_548" x1="391.055" y1="213.468" x2="391.055" y2="244.682" gradientUnits="userSpaceOnUse">
<stop stop-color="#44B2FD"/>
<stop offset="0.927083" stop-color="#3F6DCF"/>
</linearGradient>
<clipPath id="clip0_4106_548">
<rect width="680" height="454" rx="10" fill="white"/>
</clipPath>
</defs>
</svg>
