<svg width="1440" height="355" viewBox="0 0 1440 355" fill="none" xmlns="http://www.w3.org/2000/svg">
<g clip-path="url(#clip0_4064_156)">
<path opacity="0.4" d="M2.22319e-05 432L0 -108M6.35764 432L6.35762 -108M12.7153 432L12.7152 -108M19.0729 432L19.0729 -108M25.4305 432L25.4305 -108M31.7881 432L31.7881 -108M38.1457 432L38.1457 -108M44.5033 432L44.5033 -108M50.861 432L50.8609 -108M57.2186 432L57.2186 -108M63.5762 432L63.5762 -108M69.9338 432L69.9338 -108M76.2914 432L76.2914 -108M82.6491 432L82.649 -108M89.0067 432L89.0067 -108M95.3643 432L95.3643 -108M101.722 432L101.722 -108M108.08 432L108.08 -108M114.437 432L114.437 -108M120.795 432L120.795 -108M127.152 432L127.152 -108M133.51 432L133.51 -108M139.868 432L139.868 -108M146.225 432L146.225 -108M152.583 432L152.583 -108M158.94 432L158.94 -108M165.298 432L165.298 -108M171.656 432L171.656 -108M178.013 432L178.013 -108M184.371 432L184.371 -108M190.729 432L190.728 -108M197.086 432L197.086 -108M203.444 432L203.444 -108M209.801 432L209.801 -108M216.159 432L216.159 -108M222.517 432L222.517 -108M228.874 432L228.874 -108M235.232 432L235.232 -108M241.589 432L241.589 -108M247.947 432L247.947 -108M254.305 432L254.305 -108M260.662 432L260.662 -108M267.02 432L267.02 -108M273.378 432L273.377 -108M279.735 432L279.735 -108M286.093 432L286.093 -108M292.45 432L292.45 -108M298.808 432L298.808 -108M305.166 432L305.166 -108M311.523 432L311.523 -108M317.881 432L317.881 -108M324.238 432L324.238 -108M330.596 432L330.596 -108M336.954 432L336.954 -108M343.311 432L343.311 -108M349.669 432L349.669 -108M356.027 432L356.027 -108M362.384 432L362.384 -108M368.742 432L368.742 -108M375.1 432L375.099 -108M381.457 432L381.457 -108M387.815 432L387.815 -108M394.172 432L394.172 -108M400.53 432L400.53 -108M406.888 432L406.888 -108M413.245 432L413.245 -108M419.603 432L419.603 -108M425.961 432L425.961 -108M432.318 432L432.318 -108M438.676 432L438.676 -108M445.033 432L445.033 -108M451.391 432L451.391 -108M457.749 432L457.749 -108M464.106 432L464.106 -108M470.464 432L470.464 -108M476.822 432L476.822 -108M483.179 432L483.179 -108M489.537 432L489.537 -108M495.895 432L495.895 -108M502.252 432L502.252 -108M508.61 432L508.61 -108M514.967 432L514.967 -108M521.325 432L521.325 -108M527.683 432L527.683 -108M534.04 432L534.04 -108M540.398 432L540.398 -108M546.756 432L546.756 -108M553.113 432L553.113 -108M559.471 432L559.471 -108M565.829 432L565.829 -108M572.186 432L572.186 -108M578.544 432L578.544 -108M584.901 432L584.901 -108M591.259 432L591.259 -108M597.617 432L597.617 -108M603.974 432L603.974 -108M610.332 432L610.332 -108M616.69 432L616.69 -108M623.047 432L623.047 -108M629.405 432L629.405 -108M635.763 432L635.762 -108M642.12 432L642.12 -108M648.478 432L648.478 -108M654.835 432V-108M661.193 432V-108M667.551 432V-108M673.908 432V-108M680.266 432V-108M686.623 432V-108M692.981 432V-108M699.339 432V-108M705.696 432V-108M712.054 432V-108M718.411 432V-108M724.769 432V-108M731.127 432V-108M737.484 432V-108M743.842 432V-108M750.199 432V-108M756.557 432V-108M762.915 432V-108M769.272 432V-108M775.63 432V-108M781.987 432V-108M788.345 432V-108M794.703 432V-108M801.06 432V-108M807.418 432V-108M813.775 432V-108M820.133 432V-108M826.49 432V-108M832.848 432V-108M839.206 432V-108M845.563 432V-108M851.921 432V-108M858.278 432V-108M864.636 432V-108M870.994 432V-108M877.351 432V-108M883.709 432V-108M890.066 432V-108M896.424 432V-108M902.782 432V-108M909.139 432V-108M915.497 432V-108M921.854 432V-108M928.212 432V-108M934.57 432V-108M940.927 432V-108M947.285 432V-108M953.642 432V-108M960 432V-108" stroke="url(#paint0_linear_4064_156)" stroke-width="0.63576"/>
<path opacity="0.4" d="M967 432L967 -108M973.358 432L973.358 -108M979.715 432L979.715 -108M986.073 432L986.073 -108M992.43 432L992.43 -108M998.788 432L998.788 -108M1005.15 432L1005.15 -108M1011.5 432L1011.5 -108M1017.86 432L1017.86 -108M1024.22 432L1024.22 -108M1030.58 432L1030.58 -108M1036.93 432L1036.93 -108M1043.29 432L1043.29 -108M1049.65 432L1049.65 -108M1056.01 432L1056.01 -108M1062.36 432L1062.36 -108M1068.72 432L1068.72 -108M1075.08 432L1075.08 -108M1081.44 432L1081.44 -108M1087.79 432L1087.79 -108M1094.15 432L1094.15 -108M1100.51 432L1100.51 -108M1106.87 432L1106.87 -108M1113.23 432L1113.23 -108M1119.58 432L1119.58 -108M1125.94 432L1125.94 -108M1132.3 432L1132.3 -108M1138.66 432L1138.66 -108M1145.01 432L1145.01 -108M1151.37 432L1151.37 -108M1157.73 432L1157.73 -108M1164.09 432L1164.09 -108M1170.44 432L1170.44 -108M1176.8 432L1176.8 -108M1183.16 432L1183.16 -108M1189.52 432L1189.52 -108M1195.87 432L1195.87 -108M1202.23 432L1202.23 -108M1208.59 432L1208.59 -108M1214.95 432L1214.95 -108M1221.3 432L1221.3 -108M1227.66 432L1227.66 -108M1234.02 432L1234.02 -108M1240.38 432L1240.38 -108M1246.74 432L1246.74 -108M1253.09 432L1253.09 -108M1259.45 432L1259.45 -108M1265.81 432L1265.81 -108M1272.17 432L1272.17 -108M1278.52 432L1278.52 -108M1284.88 432L1284.88 -108M1291.24 432L1291.24 -108M1297.6 432L1297.6 -108M1303.95 432L1303.95 -108M1310.31 432L1310.31 -108M1316.67 432L1316.67 -108M1323.03 432L1323.03 -108M1329.38 432L1329.38 -108M1335.74 432L1335.74 -108M1342.1 432L1342.1 -108M1348.46 432L1348.46 -108M1354.81 432L1354.81 -108M1361.17 432L1361.17 -108M1367.53 432L1367.53 -108M1373.89 432L1373.89 -108M1380.25 432L1380.25 -108M1386.6 432L1386.6 -108M1392.96 432L1392.96 -108M1399.32 432L1399.32 -108M1405.68 432L1405.68 -108M1412.03 432L1412.03 -108M1418.39 432L1418.39 -108M1424.75 432L1424.75 -108M1431.11 432L1431.11 -108M1437.46 432L1437.46 -108M1443.82 432L1443.82 -108M1450.18 432L1450.18 -108M1456.54 432L1456.54 -108M1462.89 432L1462.89 -108M1469.25 432L1469.25 -108M1475.61 432L1475.61 -108M1481.97 432L1481.97 -108M1488.33 432L1488.33 -108M1494.68 432L1494.68 -108M1501.04 432L1501.04 -108M1507.4 432L1507.4 -108M1513.76 432L1513.76 -108M1520.11 432L1520.11 -108M1526.47 432L1526.47 -108M1532.83 432L1532.83 -108M1539.19 432L1539.19 -108M1545.54 432L1545.54 -108M1551.9 432L1551.9 -108M1558.26 432L1558.26 -108M1564.62 432L1564.62 -108M1570.97 432L1570.97 -108M1577.33 432L1577.33 -108M1583.69 432L1583.69 -108M1590.05 432L1590.05 -108M1596.4 432L1596.4 -108M1602.76 432L1602.76 -108M1609.12 432L1609.12 -108M1615.48 432L1615.48 -108M1621.84 432V-108M1628.19 432V-108M1634.55 432V-108M1640.91 432V-108M1647.27 432V-108M1653.62 432V-108M1659.98 432V-108M1666.34 432V-108M1672.7 432V-108M1679.05 432V-108M1685.41 432V-108M1691.77 432V-108M1698.13 432V-108M1704.48 432V-108M1710.84 432V-108M1717.2 432V-108M1723.56 432V-108M1729.91 432V-108M1736.27 432V-108M1742.63 432V-108M1748.99 432V-108M1755.34 432V-108M1761.7 432V-108M1768.06 432V-108M1774.42 432V-108M1780.78 432V-108M1787.13 432V-108M1793.49 432V-108M1799.85 432V-108M1806.21 432V-108M1812.56 432V-108M1818.92 432V-108M1825.28 432V-108M1831.64 432V-108M1837.99 432V-108M1844.35 432V-108M1850.71 432V-108M1857.07 432V-108M1863.42 432V-108M1869.78 432V-108M1876.14 432V-108M1882.5 432V-108M1888.85 432V-108M1895.21 432V-108M1901.57 432V-108M1907.93 432V-108M1914.28 432V-108M1920.64 432V-108M1927 432V-108" stroke="url(#paint1_linear_4064_156)" stroke-width="0.63576"/>
</g>
<g opacity="0.15" filter="url(#filter0_f_4064_156)">
<circle cx="303.268" cy="303.268" r="303.268" transform="matrix(-0.944894 -0.327375 -0.327375 0.944894 1846.88 44.5649)" fill="url(#paint2_linear_4064_156)"/>
</g>
<g opacity="0.15" filter="url(#filter1_f_4064_156)">
<circle cx="252.852" cy="252.852" r="252.852" transform="matrix(-0.944894 -0.327375 -0.327375 0.944894 1507.74 183.389)" fill="#9CE93B"/>
</g>
<g opacity="0.2" filter="url(#filter2_f_4064_156)">
<circle cx="248.902" cy="248.902" r="248.902" transform="matrix(-0.944894 -0.327375 -0.327375 0.944894 1273.34 318.693)" fill="#44B2FD"/>
</g>
<defs>
<filter id="filter0_f_4064_156" x="880.104" y="-349.103" width="1161.88" height="1161.88" filterUnits="userSpaceOnUse" color-interpolation-filters="sRGB">
<feFlood flood-opacity="0" result="BackgroundImageFix"/>
<feBlend mode="normal" in="SourceGraphic" in2="BackgroundImageFix" result="shape"/>
<feGaussianBlur stdDeviation="138.796" result="effect1_foregroundBlur_4064_156"/>
</filter>
<filter id="filter1_f_4064_156" x="701.676" y="-144.835" width="968.73" height="968.73" filterUnits="userSpaceOnUse" color-interpolation-filters="sRGB">
<feFlood flood-opacity="0" result="BackgroundImageFix"/>
<feBlend mode="normal" in="SourceGraphic" in2="BackgroundImageFix" result="shape"/>
<feGaussianBlur stdDeviation="115.722" result="effect1_foregroundBlur_4064_156"/>
</filter>
<filter id="filter2_f_4064_156" x="479.873" y="-4.40269" width="953.594" height="953.594" filterUnits="userSpaceOnUse" color-interpolation-filters="sRGB">
<feFlood flood-opacity="0" result="BackgroundImageFix"/>
<feBlend mode="normal" in="SourceGraphic" in2="BackgroundImageFix" result="shape"/>
<feGaussianBlur stdDeviation="113.914" result="effect1_foregroundBlur_4064_156"/>
</filter>
<linearGradient id="paint0_linear_4064_156" x1="515.62" y1="421.537" x2="515.62" y2="67.8375" gradientUnits="userSpaceOnUse">
<stop stop-color="#E6E6E6"/>
<stop offset="0.55" stop-color="#E5E5E5" stop-opacity="0.0316421"/>
<stop offset="1" stop-color="#E5E5E5" stop-opacity="0"/>
</linearGradient>
<linearGradient id="paint1_linear_4064_156" x1="1482.62" y1="421.537" x2="1482.62" y2="67.8375" gradientUnits="userSpaceOnUse">
<stop stop-color="#E6E6E6"/>
<stop offset="0.55" stop-color="#E5E5E5" stop-opacity="0.0316421"/>
<stop offset="1" stop-color="#E5E5E5" stop-opacity="0"/>
</linearGradient>
<linearGradient id="paint2_linear_4064_156" x1="303.268" y1="330.967" x2="478.607" y2="606.536" gradientUnits="userSpaceOnUse">
<stop stop-color="#E52F0B"/>
<stop offset="1" stop-color="#7F1A06"/>
</linearGradient>
<clipPath id="clip0_4064_156">
<rect width="1440" height="355" fill="white"/>
</clipPath>
</defs>
</svg>
