<svg width="315" height="195" viewBox="0 0 315 195" fill="none" xmlns="http://www.w3.org/2000/svg">
<g clip-path="url(#clip0_4020_2434)">
<rect width="315" height="195" rx="10" fill="#EDF4FC"/>
<path opacity="0.3" d="M2.78347e-05 206.818L0 9.53674e-07M7.95984 206.818L7.95982 9.53674e-07M15.9197 206.818L15.9196 9.53674e-07M23.8795 206.818L23.8794 9.53674e-07M31.8393 206.818L31.8393 9.53674e-07M39.7991 206.818L39.7991 9.53674e-07M47.7589 206.818L47.7589 9.53674e-07M55.7187 206.818L55.7187 9.53674e-07M63.6786 206.818L63.6785 9.53674e-07M71.6384 206.818L71.6383 9.53674e-07M79.5982 206.818L79.5982 9.53674e-07M87.558 206.818L87.558 9.53674e-07M95.5178 206.818L95.5178 9.53674e-07M103.478 206.818L103.478 9.53674e-07M111.437 206.818L111.437 9.53674e-07M119.397 206.818L119.397 9.53674e-07M127.357 206.818L127.357 9.53674e-07M135.317 206.818L135.317 9.53674e-07M143.277 206.818L143.277 9.53674e-07M151.237 206.818L151.237 9.53674e-07M159.196 206.818L159.196 9.53674e-07M167.156 206.818L167.156 9.53674e-07M175.116 206.818L175.116 9.53674e-07M183.076 206.818L183.076 9.53674e-07M191.036 206.818L191.036 9.53674e-07M198.995 206.818L198.995 9.53674e-07M206.955 206.818L206.955 9.53674e-07M214.915 206.818L214.915 9.53674e-07M222.875 206.818L222.875 9.53674e-07M230.835 206.818L230.835 9.53674e-07M238.794 206.818L238.794 9.53674e-07M246.754 206.818L246.754 9.53674e-07M254.714 206.818L254.714 9.53674e-07M262.674 206.818L262.674 9.53674e-07M270.634 206.818L270.634 9.53674e-07M278.594 206.818L278.593 9.53674e-07M286.553 206.818L286.553 9.53674e-07M294.513 206.818L294.513 9.53674e-07M302.473 206.818L302.473 9.53674e-07M310.433 206.818L310.433 9.53674e-07M318.393 206.818L318.393 9.53674e-07M326.352 206.818L326.352 9.53674e-07M334.312 206.818L334.312 9.53674e-07M342.272 206.818L342.272 9.53674e-07M350.232 206.818L350.232 9.53674e-07M358.192 206.818L358.192 9.53674e-07M366.151 206.818L366.151 9.53674e-07M374.111 206.818L374.111 9.53674e-07M382.071 206.818L382.071 9.53674e-07M390.031 206.818L390.031 9.53674e-07M397.991 206.818L397.991 9.53674e-07M405.951 206.818L405.95 9.53674e-07M413.91 206.818L413.91 9.53674e-07M421.87 206.818L421.87 9.53674e-07M429.83 206.818L429.83 9.53674e-07M437.79 206.818L437.79 9.53674e-07M445.75 206.818L445.75 9.53674e-07M453.71 206.818L453.71 9.53674e-07M461.669 206.818L461.669 9.53674e-07M469.629 206.818L469.629 9.53674e-07M477.589 206.818L477.589 9.53674e-07M485.549 206.818L485.549 9.53674e-07M493.509 206.818L493.509 9.53674e-07M501.469 206.818L501.469 9.53674e-07M509.428 206.818L509.428 9.53674e-07M517.388 206.818L517.388 9.53674e-07M525.348 206.818L525.348 9.53674e-07M533.308 206.818L533.308 9.53674e-07M541.268 206.818L541.268 9.53674e-07M549.228 206.818L549.228 9.53674e-07M557.187 206.818L557.187 9.53674e-07M565.147 206.818L565.147 9.53674e-07M573.107 206.818L573.107 9.53674e-07M581.067 206.818L581.067 9.53674e-07M589.027 206.818L589.027 9.53674e-07M596.987 206.818L596.987 9.53674e-07M604.946 206.818L604.946 9.53674e-07M612.906 206.818L612.906 9.53674e-07M620.866 206.818L620.866 9.53674e-07M628.826 206.818L628.826 9.53674e-07M636.786 206.818L636.786 9.53674e-07M644.746 206.818L644.746 9.53674e-07M652.705 206.818L652.705 9.53674e-07M660.665 206.818L660.665 9.53674e-07M668.625 206.818L668.625 9.53674e-07M676.585 206.818L676.585 9.53674e-07M684.545 206.818L684.545 9.53674e-07M692.505 206.818L692.505 9.53674e-07M700.464 206.818L700.464 9.53674e-07M708.424 206.818L708.424 9.53674e-07M716.384 206.818L716.384 9.53674e-07M724.344 206.818L724.344 9.53674e-07M732.304 206.818L732.304 9.53674e-07M740.264 206.818L740.264 9.53674e-07M748.224 206.818L748.223 9.53674e-07M756.183 206.818L756.183 9.53674e-07M764.143 206.818L764.143 9.53674e-07M772.103 206.818L772.103 9.53674e-07M780.063 206.818L780.063 9.53674e-07M788.023 206.818L788.023 9.53674e-07M795.983 206.818L795.982 9.53674e-07M803.942 206.818L803.942 9.53674e-07M811.902 206.818L811.902 9.53674e-07M819.862 206.818V9.53674e-07M827.822 206.818V9.53674e-07M835.782 206.818V9.53674e-07M843.741 206.818V9.53674e-07M851.701 206.818V9.53674e-07M859.661 206.818V9.53674e-07M867.621 206.818V9.53674e-07M875.581 206.818V9.53674e-07M883.54 206.818V9.53674e-07M891.5 206.818V9.53674e-07M899.46 206.818V9.53674e-07M907.42 206.818V9.53674e-07M915.379 206.818V9.53674e-07M923.339 206.818V9.53674e-07M931.299 206.818V9.53674e-07M939.259 206.818V9.53674e-07M947.219 206.818V9.53674e-07M955.178 206.818V9.53674e-07M963.138 206.818V9.53674e-07M971.098 206.818V9.53674e-07M979.058 206.818V9.53674e-07M987.018 206.818V9.53674e-07M994.977 206.818V9.53674e-07M1002.94 206.818V9.53674e-07M1010.9 206.818V9.53674e-07M1018.86 206.818V9.53674e-07M1026.82 206.818V9.53674e-07M1034.78 206.818V9.53674e-07M1042.74 206.818V9.53674e-07M1050.7 206.818V9.53674e-07M1058.66 206.818V9.53674e-07M1066.62 206.818V9.53674e-07M1074.58 206.818V9.53674e-07M1082.54 206.818V9.53674e-07M1090.49 206.818V9.53674e-07M1098.45 206.818V9.53674e-07M1106.41 206.818V9.53674e-07M1114.37 206.818V9.53674e-07M1122.33 206.818V9.53674e-07M1130.29 206.818V9.53674e-07M1138.25 206.818V9.53674e-07M1146.21 206.818V9.53674e-07M1154.17 206.818V9.53674e-07M1162.13 206.818V9.53674e-07M1170.09 206.818V9.53674e-07M1178.05 206.818V9.53674e-07M1186.01 206.818V9.53674e-07M1193.97 206.818V9.53674e-07M1201.93 206.818V9.53674e-07" stroke="url(#paint0_linear_4020_2434)" stroke-width="0.795455"/>
<g style="mix-blend-mode:multiply" opacity="0.05" filter="url(#filter0_f_4020_2434)">
<circle cx="117.964" cy="117.964" r="117.964" transform="matrix(-1 0 0 1 492.302 93.3898)" fill="#E52F0B"/>
</g>
<g style="mix-blend-mode:multiply" opacity="0.05" filter="url(#filter1_f_4020_2434)">
<circle cx="117.964" cy="117.964" r="117.964" transform="matrix(-1 0 0 1 374.337 19.8864)" fill="#9CE93B"/>
</g>
<g style="mix-blend-mode:multiply" opacity="0.05" filter="url(#filter2_f_4020_2434)">
<circle cx="117.964" cy="117.964" r="117.964" transform="matrix(-1 0 0 1 118.178 -107.25)" fill="#4186E0"/>
</g>
<path d="M162.149 89.0822C164.123 86.8453 165.321 83.9069 165.321 80.6886C165.321 79.039 165.007 77.4628 164.434 76.017C162.459 78.2539 161.261 81.1923 161.261 84.4106C161.261 86.0602 161.576 87.6364 162.149 89.0822Z" fill="url(#paint1_linear_4020_2434)"/>
<path d="M160.604 90.5612C159.74 88.6902 159.259 86.6066 159.259 84.4106C159.259 80.3949 160.87 76.7555 163.481 74.1036C161.255 70.4441 157.229 68 152.633 68C145.625 68 139.944 73.6809 139.944 80.6886C139.944 87.6963 145.625 93.3772 152.633 93.3772C155.652 93.3772 158.426 92.3224 160.604 90.5612Z" fill="url(#paint2_linear_4020_2434)"/>
<path d="M178.556 96.2371C183.287 94.3932 186.638 89.7933 186.638 84.4106C186.638 84.0745 186.625 83.7415 186.6 83.412C181.869 85.2558 178.518 89.8557 178.518 95.2385C178.518 95.5746 178.531 95.9076 178.556 96.2371Z" fill="url(#paint3_linear_4020_2434)"/>
<path d="M176.6 96.8221C176.544 96.3019 176.515 95.7735 176.515 95.2385C176.515 88.8537 180.588 83.4202 186.278 81.3946C184.924 75.8429 179.918 71.722 173.95 71.722C166.942 71.722 161.261 77.4029 161.261 84.4106C161.261 91.4183 166.942 97.0992 173.95 97.0992C174.859 97.0992 175.745 97.0037 176.6 96.8221Z" fill="url(#paint4_linear_4020_2434)"/>
<path d="M203.876 95.9427C203.889 95.7096 203.895 95.4748 203.895 95.2385C203.895 88.2308 198.214 82.5499 191.206 82.5499C184.199 82.5499 178.518 88.2308 178.518 95.2385C178.518 99.749 180.871 103.71 184.417 105.96C185.735 104.928 187.206 104.172 188.819 103.703C190.606 103.183 192.5 102.93 194.49 102.93C195.294 102.93 196.145 102.972 197.044 103.054C197.082 101.87 197.101 100.647 197.101 99.388V95.8697L199.146 95.9132C200.499 95.942 201.522 95.9561 202.222 95.9561C202.736 95.9561 203.287 95.9516 203.876 95.9427Z" fill="url(#paint5_linear_4020_2434)"/>
<path d="M203.605 97.9491C203.526 97.9501 203.449 97.951 203.372 97.9519C202.971 97.9563 202.588 97.9585 202.222 97.9585C201.91 97.9585 201.538 97.9558 201.106 97.9503C200.54 97.9432 199.873 97.9315 199.103 97.9151V99.388C199.103 99.5653 199.103 99.742 199.102 99.918C199.097 101.072 199.076 102.196 199.04 103.29C199.017 103.968 198.988 104.634 198.952 105.289C201.275 103.496 202.959 100.917 203.605 97.9491Z" fill="url(#paint6_linear_4020_2434)"/>
<path d="M198.939 105.299C198.25 105.197 197.59 105.117 196.96 105.057C196.078 104.974 195.254 104.933 194.49 104.933C192.671 104.933 190.967 105.164 189.378 105.626C188.315 105.935 187.327 106.39 186.412 106.99C187.891 107.594 189.51 107.927 191.206 107.927C194.117 107.927 196.799 106.947 198.939 105.299Z" fill="url(#paint7_linear_4020_2434)"/>
<path d="M109 127.48C109.217 125.04 109.477 120.657 109.78 114.333C110.097 107.994 110.292 102.521 110.365 97.9151C111.866 97.944 112.935 97.9584 113.57 97.9584C114.422 97.9584 115.462 97.944 116.689 97.9151L116.169 105.821L115.411 123.452L115.325 127.48C114.14 127.451 113.137 127.437 112.314 127.437C112.04 127.437 110.935 127.451 109 127.48Z" fill="#0C0B14"/>
<path d="M122.429 110.283C122.631 109.243 122.754 108.514 122.797 108.095C122.855 107.676 122.949 107.041 123.079 106.189C125.042 105.727 126.775 105.402 128.277 105.214C129.779 105.027 131.23 104.933 132.63 104.933C134.219 104.933 135.677 105.12 137.006 105.496C138.334 105.857 139.374 106.442 140.125 107.25C140.875 108.059 141.251 109.221 141.251 110.737C141.251 111.561 141.135 113.661 140.904 117.04C140.673 120.405 140.536 123.885 140.493 127.48C139.395 127.451 138.385 127.437 137.46 127.437C136.58 127.437 135.547 127.451 134.363 127.48C134.551 125.733 134.702 123.711 134.818 121.416L135.1 116.022C134.551 116.383 134.132 116.636 133.843 116.78C133.555 116.925 133.23 117.062 132.869 117.192C132.508 117.307 131.872 117.495 130.963 117.755C130.053 118.001 129.324 118.217 128.775 118.405C128.226 118.593 127.728 118.809 127.281 119.055C126.847 119.286 126.479 119.553 126.176 119.856C125.873 120.145 125.649 120.455 125.504 120.787C125.374 121.105 125.31 121.452 125.31 121.827C125.31 122.434 125.483 122.961 125.829 123.408C126.19 123.841 126.638 124.145 127.172 124.318C127.706 124.491 128.335 124.578 129.057 124.578C129.519 124.578 130.002 124.542 130.508 124.47C131.028 124.397 131.721 124.217 132.587 123.928C132.284 124.751 131.93 125.978 131.526 127.61C130.501 127.783 129.685 127.892 129.078 127.935C128.472 127.978 127.909 128 127.389 128C125.569 128 124.075 127.755 122.905 127.264C121.736 126.773 120.869 125.993 120.306 124.924C119.757 123.856 119.483 122.78 119.483 121.697C119.483 121.076 119.591 120.463 119.808 119.856C120.025 119.25 120.342 118.694 120.761 118.188C121.18 117.683 121.721 117.199 122.385 116.737C123.05 116.261 124.01 115.806 125.266 115.373C126.522 114.925 128.183 114.477 130.248 114.03C130.797 113.914 131.367 113.777 131.959 113.618C132.551 113.445 133.02 113.279 133.367 113.12C133.728 112.961 134.038 112.759 134.298 112.514C134.558 112.254 134.746 111.986 134.861 111.712C134.991 111.438 135.056 111.156 135.056 110.867C135.056 110.304 134.869 109.828 134.493 109.438C134.132 109.048 133.656 108.781 133.064 108.636C132.486 108.478 131.843 108.398 131.136 108.398C128.508 108.398 125.606 109.026 122.429 110.283Z" fill="#0C0B14"/>
<path d="M151.842 127.48C150.889 124.433 148.326 117.091 144.153 105.453C145.424 105.481 146.521 105.496 147.445 105.496C148.427 105.496 149.431 105.481 150.456 105.453L155.524 121.979L156.217 120.094L161.091 107.727C161.322 107.149 161.611 106.391 161.957 105.453C163.141 105.481 164.195 105.496 165.119 105.496C166.058 105.496 167.127 105.481 168.325 105.453L164.795 113.098L159.683 124.686L158.535 127.48C157.235 127.451 156.145 127.437 155.264 127.437C154.34 127.437 153.2 127.451 151.842 127.48Z" fill="#0C0B14"/>
<path d="M169.841 127.48C170.058 125.314 170.209 123.502 170.296 122.044C170.44 119.733 170.563 117.069 170.664 114.051C170.78 111.033 170.859 108.167 170.903 105.453C172.318 105.481 173.379 105.496 174.086 105.496C174.736 105.496 175.79 105.481 177.249 105.453C177.047 107.965 176.881 110.362 176.751 112.643C176.635 114.925 176.548 117.538 176.491 120.484C176.433 123.43 176.404 125.762 176.404 127.48C175.09 127.451 174.036 127.437 173.242 127.437C172.491 127.437 171.357 127.451 169.841 127.48Z" fill="#0C0B14"/>
<path d="M204.063 127.48C202.865 127.451 201.933 127.437 201.269 127.437C200.547 127.437 199.551 127.451 198.28 127.48L198.475 123.711C197.84 124.534 197.291 125.17 196.829 125.617C196.381 126.065 195.818 126.484 195.139 126.874C194.475 127.249 193.753 127.531 192.973 127.718C192.194 127.906 191.385 128 190.548 128C189.161 128 187.862 127.747 186.649 127.242C185.436 126.737 184.404 126.029 183.552 125.119C182.7 124.195 182.072 123.105 181.667 121.849C181.263 120.578 181.061 119.257 181.061 117.885C181.061 115.993 181.422 114.152 182.144 112.362C182.866 110.557 183.855 109.099 185.111 107.987C186.367 106.875 187.79 106.088 189.378 105.626C190.966 105.164 192.67 104.933 194.49 104.933C195.804 104.933 197.291 105.055 198.951 105.301C199.052 103.424 199.103 101.453 199.103 99.3879V97.9151C200.46 97.944 201.5 97.9584 202.222 97.9584C203.161 97.9584 204.215 97.944 205.384 97.9151C205.067 101.583 204.763 106.579 204.475 112.903C204.2 119.213 204.063 124.072 204.063 127.48ZM198.713 109.416C197.63 109.127 196.591 108.983 195.594 108.983C194.453 108.983 193.363 109.142 192.324 109.46C191.284 109.777 190.36 110.319 189.551 111.084C188.757 111.849 188.143 112.831 187.71 114.03C187.277 115.228 187.06 116.383 187.06 117.495C187.06 118.607 187.255 119.625 187.645 120.549C188.05 121.473 188.67 122.202 189.508 122.737C190.345 123.271 191.291 123.538 192.345 123.538C193.139 123.538 193.861 123.401 194.511 123.127C195.161 122.838 195.753 122.405 196.287 121.827C196.822 121.235 197.269 120.477 197.63 119.553C198.006 118.629 198.273 117.401 198.432 115.871C198.533 114.744 198.627 112.593 198.713 109.416Z" fill="#0C0B14"/>
</g>
<defs>
<filter id="filter0_f_4020_2434" x="148.397" y="-14.5865" width="451.881" height="451.881" filterUnits="userSpaceOnUse" color-interpolation-filters="sRGB">
<feFlood flood-opacity="0" result="BackgroundImageFix"/>
<feBlend mode="normal" in="SourceGraphic" in2="BackgroundImageFix" result="shape"/>
<feGaussianBlur stdDeviation="53.9882" result="effect1_foregroundBlur_4020_2434"/>
</filter>
<filter id="filter1_f_4020_2434" x="30.4327" y="-88.0899" width="451.881" height="451.881" filterUnits="userSpaceOnUse" color-interpolation-filters="sRGB">
<feFlood flood-opacity="0" result="BackgroundImageFix"/>
<feBlend mode="normal" in="SourceGraphic" in2="BackgroundImageFix" result="shape"/>
<feGaussianBlur stdDeviation="53.9882" result="effect1_foregroundBlur_4020_2434"/>
</filter>
<filter id="filter2_f_4020_2434" x="-225.726" y="-215.226" width="451.881" height="451.881" filterUnits="userSpaceOnUse" color-interpolation-filters="sRGB">
<feFlood flood-opacity="0" result="BackgroundImageFix"/>
<feBlend mode="normal" in="SourceGraphic" in2="BackgroundImageFix" result="shape"/>
<feGaussianBlur stdDeviation="53.9882" result="effect1_foregroundBlur_4020_2434"/>
</filter>
<linearGradient id="paint0_linear_4020_2434" x1="645.562" y1="226.983" x2="645.562" y2="133.656" gradientUnits="userSpaceOnUse">
<stop stop-color="#8AB3E6"/>
<stop offset="1" stop-color="#8AB2E5" stop-opacity="0"/>
</linearGradient>
<linearGradient id="paint1_linear_4020_2434" x1="152.464" y1="74.4289" x2="152.464" y2="95.2382" gradientUnits="userSpaceOnUse">
<stop stop-color="#FA3602"/>
<stop offset="1" stop-color="#B42020"/>
</linearGradient>
<linearGradient id="paint2_linear_4020_2434" x1="152.464" y1="74.4289" x2="152.464" y2="95.2382" gradientUnits="userSpaceOnUse">
<stop stop-color="#FA3602"/>
<stop offset="1" stop-color="#B42020"/>
</linearGradient>
<linearGradient id="paint3_linear_4020_2434" x1="173.781" y1="78.1509" x2="173.781" y2="98.9602" gradientUnits="userSpaceOnUse">
<stop stop-color="#9DEA3A"/>
<stop offset="1" stop-color="#69B44F"/>
</linearGradient>
<linearGradient id="paint4_linear_4020_2434" x1="173.781" y1="78.1509" x2="173.781" y2="98.9602" gradientUnits="userSpaceOnUse">
<stop stop-color="#9DEA3A"/>
<stop offset="1" stop-color="#69B44F"/>
</linearGradient>
<linearGradient id="paint5_linear_4020_2434" x1="191.037" y1="88.9788" x2="191.037" y2="109.788" gradientUnits="userSpaceOnUse">
<stop stop-color="#44B2FD"/>
<stop offset="0.927083" stop-color="#3F6DCF"/>
</linearGradient>
<linearGradient id="paint6_linear_4020_2434" x1="191.037" y1="88.9788" x2="191.037" y2="109.788" gradientUnits="userSpaceOnUse">
<stop stop-color="#44B2FD"/>
<stop offset="0.927083" stop-color="#3F6DCF"/>
</linearGradient>
<linearGradient id="paint7_linear_4020_2434" x1="191.037" y1="88.9788" x2="191.037" y2="109.788" gradientUnits="userSpaceOnUse">
<stop stop-color="#44B2FD"/>
<stop offset="0.927083" stop-color="#3F6DCF"/>
</linearGradient>
<clipPath id="clip0_4020_2434">
<rect width="315" height="195" rx="10" fill="white"/>
</clipPath>
</defs>
</svg>
