<svg width="65" height="40" viewBox="0 0 65 40" fill="none" xmlns="http://www.w3.org/2000/svg">
<path d="M35.4322 14.0548C36.7485 12.5635 37.5473 10.6046 37.5473 8.45908C37.5473 7.3593 37.3374 6.30855 36.9555 5.34468C35.6392 6.83593 34.8404 8.79488 34.8404 10.9404C34.8404 12.0402 35.0503 13.0909 35.4322 14.0548Z" fill="url(#paint0_linear_11_377)"/>
<path d="M34.4026 15.0408C33.8267 13.7934 33.5055 12.4044 33.5055 10.9404C33.5055 8.26326 34.5796 5.837 36.3204 4.06907C34.8364 1.6294 32.1526 0 29.0882 0C24.4164 0 20.6292 3.78726 20.6292 8.45908C20.6292 13.1309 24.4164 16.9182 29.0882 16.9182C31.1013 16.9182 32.9502 16.2149 34.4026 15.0408Z" fill="url(#paint1_linear_11_377)"/>
<path d="M46.3707 18.8247C49.5242 17.5955 51.7587 14.5289 51.7587 10.9404C51.7587 10.7163 51.75 10.4943 51.7329 10.2746C48.5794 11.5039 46.3449 14.5705 46.3449 18.159C46.3449 18.383 46.3536 18.6051 46.3707 18.8247Z" fill="url(#paint2_linear_11_377)"/>
<path d="M45.0662 19.2147C45.0291 18.8679 45.01 18.5157 45.01 18.159C45.01 13.9025 47.7253 10.2802 51.5183 8.92973C50.616 5.22857 47.2786 2.48132 43.2997 2.48132C38.6278 2.48132 34.8406 6.26858 34.8406 10.9404C34.8406 15.6122 38.6278 19.3995 43.2997 19.3995C43.9055 19.3995 44.4965 19.3358 45.0662 19.2147Z" fill="url(#paint3_linear_11_377)"/>
<path d="M63.2503 18.6285C63.2588 18.4731 63.2631 18.3165 63.2631 18.159C63.2631 13.4871 59.4759 9.69989 54.804 9.69989C50.1322 9.69989 46.345 13.4871 46.345 18.159C46.345 21.166 47.914 23.8065 50.278 25.3066C51.1565 24.6187 52.137 24.115 53.2124 23.8021C54.4039 23.4555 55.6664 23.2869 56.9931 23.2869C57.5289 23.2869 58.0967 23.3149 58.6956 23.3695C58.721 22.5797 58.7338 21.765 58.7338 20.9253V18.5798L60.0971 18.6088C60.9992 18.628 61.681 18.6374 62.148 18.6374C62.4907 18.6374 62.858 18.6344 63.2503 18.6285Z" fill="url(#paint4_linear_11_377)"/>
<path d="M63.0697 19.9661C63.0174 19.9667 62.9656 19.9673 62.9142 19.9679C62.6471 19.9708 62.3917 19.9723 62.148 19.9723C61.9396 19.9723 61.6915 19.9705 61.4036 19.9669C61.0267 19.9621 60.5818 19.9543 60.0687 19.9434V20.9253C60.0687 21.0435 60.0685 21.1613 60.068 21.2786C60.0647 22.0479 60.0507 22.7973 60.0261 23.5268C60.0109 23.9786 59.9915 24.4228 59.968 24.8594C61.5165 23.6643 62.6392 21.9444 63.0697 19.9661Z" fill="url(#paint5_linear_11_377)"/>
<path d="M59.9594 24.8661C59.4994 24.7982 59.0595 24.7445 58.6394 24.7049C58.0515 24.6495 57.5027 24.6218 56.9931 24.6218C55.7801 24.6218 54.6442 24.7759 53.5853 25.0839C52.8766 25.2901 52.2175 25.5932 51.608 25.9934C52.5941 26.3961 53.6731 26.618 54.804 26.618C56.7444 26.618 58.5322 25.9647 59.9594 24.8661Z" fill="url(#paint6_linear_11_377)"/>
<path d="M0 39.6535C0.144396 38.0266 0.317671 35.105 0.519825 30.8886C0.731606 26.6626 0.861562 23.0142 0.909694 19.9434C1.91084 19.9627 2.62319 19.9723 3.04675 19.9723C3.61471 19.9723 4.30781 19.9627 5.12605 19.9434L4.7795 25.2139L4.27412 36.9677L4.21636 39.6535C3.427 39.6342 2.75796 39.6246 2.20926 39.6246C2.02636 39.6246 1.28994 39.6342 0 39.6535Z" fill="#0C0B14"/>
<path d="M8.95255 28.1884C9.08731 27.4953 9.16914 27.0092 9.19802 26.73C9.23652 26.4509 9.29909 26.0273 9.38573 25.4593C10.6949 25.1513 11.8501 24.9347 12.8512 24.8096C13.8524 24.6844 14.8198 24.6218 15.7536 24.6218C16.8125 24.6218 17.7848 24.747 18.6704 24.9973C19.556 25.2379 20.2491 25.6278 20.7497 26.1669C21.2503 26.706 21.5005 27.4809 21.5005 28.4917C21.5005 29.0404 21.4235 30.441 21.2695 32.6936C21.1155 34.9365 21.024 37.2565 20.9952 39.6535C20.2636 39.6342 19.5897 39.6246 18.9736 39.6246C18.3864 39.6246 17.6981 39.6342 16.9088 39.6535C17.0339 38.4887 17.135 37.141 17.212 35.6104L17.3997 32.0149C17.0339 32.2556 16.7547 32.424 16.5622 32.5203C16.3697 32.6166 16.1531 32.708 15.9124 32.7947C15.6718 32.8717 15.2482 32.9968 14.6417 33.1701C14.0353 33.3337 13.5491 33.4781 13.1833 33.6033C12.8175 33.7284 12.4854 33.8728 12.187 34.0365C11.8982 34.1905 11.6527 34.3686 11.4506 34.5707C11.2484 34.7632 11.0992 34.9702 11.003 35.1916C10.9163 35.4034 10.873 35.6344 10.873 35.8847C10.873 36.289 10.9885 36.6404 11.2196 36.9388C11.4602 37.2276 11.7586 37.4298 12.1148 37.5453C12.471 37.6608 12.8897 37.7186 13.3711 37.7186C13.6791 37.7186 14.0016 37.6945 14.3385 37.6464C14.6851 37.5982 15.1471 37.4779 15.7247 37.2854C15.5226 37.8341 15.2867 38.6523 15.0172 39.7401C14.3337 39.8556 13.7898 39.9278 13.3855 39.9567C12.9812 39.9856 12.6058 40 12.2592 40C11.0463 40 10.05 39.8364 9.27022 39.5091C8.49048 39.1818 7.91289 38.6619 7.53747 37.9496C7.17166 37.2372 6.98876 36.5201 6.98876 35.7981C6.98876 35.3842 7.06096 34.975 7.20536 34.5707C7.34975 34.1664 7.56153 33.7958 7.8407 33.4589C8.11986 33.1219 8.48085 32.7995 8.92367 32.4914C9.36648 32.1737 10.0066 31.8705 10.8441 31.5817C11.6816 31.2833 12.7887 30.9849 14.1652 30.6865C14.531 30.6095 14.9113 30.518 15.306 30.4121C15.7006 30.2966 16.0135 30.1859 16.2445 30.08C16.4852 29.9741 16.6922 29.8393 16.8654 29.6757C17.0387 29.5024 17.1639 29.3243 17.2409 29.1414C17.3275 28.9585 17.3708 28.7708 17.3708 28.5783C17.3708 28.2029 17.2457 27.8852 16.9954 27.6253C16.7547 27.3654 16.4371 27.1873 16.0424 27.091C15.6573 26.9851 15.229 26.9322 14.7573 26.9322C13.0053 26.9322 11.0704 27.3509 8.95255 28.1884Z" fill="#0C0B14"/>
<path d="M28.5615 39.6535C27.9262 37.6223 26.2175 32.7273 23.4355 24.9684C24.2826 24.9876 25.0142 24.9973 25.6303 24.9973C26.2849 24.9973 26.9539 24.9876 27.6374 24.9684L31.0162 35.9858L31.4783 34.7296L34.7272 26.4846C34.8812 26.0995 35.0738 25.5941 35.3048 24.9684C36.0942 24.9876 36.7969 24.9973 37.413 24.9973C38.0387 24.9973 38.751 24.9876 39.55 24.9684L37.1964 30.0656L33.7886 37.7908L33.0233 39.6535C32.157 39.6342 31.4302 39.6246 30.843 39.6246C30.2269 39.6246 29.4664 39.6342 28.5615 39.6535Z" fill="#0C0B14"/>
<path d="M40.5608 39.6535C40.7052 38.2095 40.8063 37.0014 40.864 36.0291C40.9603 34.4889 41.0421 32.7128 41.1095 30.7009C41.1865 28.689 41.2395 26.7782 41.2683 24.9684C42.2117 24.9876 42.9193 24.9973 43.391 24.9973C43.8242 24.9973 44.5269 24.9876 45.4991 24.9684C45.3644 26.6434 45.2537 28.2414 45.167 29.7623C45.09 31.2833 45.0323 33.0257 44.9938 34.9895C44.9552 36.9533 44.936 38.5079 44.936 39.6535C44.06 39.6342 43.3573 39.6246 42.8278 39.6246C42.3272 39.6246 41.5716 39.6342 40.5608 39.6535Z" fill="#0C0B14"/>
<path d="M63.3753 39.6535C62.5764 39.6342 61.9555 39.6246 61.5126 39.6246C61.0313 39.6246 60.3671 39.6342 59.52 39.6535L59.6499 37.141C59.2264 37.6897 58.8606 38.1132 58.5525 38.4117C58.2541 38.7101 57.8787 38.9892 57.4262 39.2491C56.9834 39.4994 56.5021 39.6871 55.9823 39.8123C55.4625 39.9374 54.9234 40 54.365 40C53.4409 40 52.5745 39.8315 51.7659 39.4946C50.9573 39.1577 50.269 38.686 49.7011 38.0795C49.1331 37.4635 48.7144 36.7367 48.4448 35.8992C48.1753 35.052 48.0405 34.1712 48.0405 33.2567C48.0405 31.9957 48.2812 30.7683 48.7625 29.5746C49.2438 28.3713 49.9032 27.3991 50.7407 26.6578C51.5782 25.9166 52.5264 25.392 53.5853 25.0839C54.6442 24.7759 55.7801 24.6218 56.9931 24.6218C57.8691 24.6218 58.8606 24.7037 59.9676 24.8673C60.035 23.6159 60.0687 22.3019 60.0687 20.9253V19.9434C60.9736 19.9627 61.6667 19.9723 62.148 19.9723C62.7737 19.9723 63.4764 19.9627 64.2562 19.9434C64.0444 22.3885 63.8422 25.7193 63.6497 29.9356C63.4668 34.1423 63.3753 37.3816 63.3753 39.6535ZM59.8088 27.6108C59.0868 27.4183 58.3937 27.322 57.7295 27.322C56.969 27.322 56.2422 27.4279 55.5491 27.6397C54.856 27.8515 54.2399 28.2125 53.7008 28.7227C53.1714 29.2329 52.7623 29.8875 52.4735 30.6865C52.1847 31.4855 52.0403 32.2556 52.0403 32.9968C52.0403 33.738 52.1702 34.4167 52.4301 35.0328C52.6997 35.6489 53.1136 36.135 53.6719 36.4912C54.2303 36.8474 54.8608 37.0255 55.5635 37.0255C56.093 37.0255 56.5743 36.934 57.0075 36.7511C57.4407 36.5586 57.8354 36.2698 58.1915 35.8847C58.5477 35.49 58.8461 34.9847 59.0868 34.3686C59.3371 33.7525 59.5152 32.9342 59.6211 31.9138C59.6884 31.163 59.751 29.7286 59.8088 27.6108Z" fill="#0C0B14"/>
<defs>
<linearGradient id="paint0_linear_11_377" x1="28.9754" y1="4.28593" x2="28.9754" y2="18.1588" gradientUnits="userSpaceOnUse">
<stop stop-color="#FA3602"/>
<stop offset="1" stop-color="#B42020"/>
</linearGradient>
<linearGradient id="paint1_linear_11_377" x1="28.9754" y1="4.28593" x2="28.9754" y2="18.1588" gradientUnits="userSpaceOnUse">
<stop stop-color="#FA3602"/>
<stop offset="1" stop-color="#B42020"/>
</linearGradient>
<linearGradient id="paint2_linear_11_377" x1="43.1869" y1="6.76726" x2="43.1869" y2="20.6401" gradientUnits="userSpaceOnUse">
<stop stop-color="#9DEA3A"/>
<stop offset="1" stop-color="#69B44F"/>
</linearGradient>
<linearGradient id="paint3_linear_11_377" x1="43.1869" y1="6.76726" x2="43.1869" y2="20.6401" gradientUnits="userSpaceOnUse">
<stop stop-color="#9DEA3A"/>
<stop offset="1" stop-color="#69B44F"/>
</linearGradient>
<linearGradient id="paint4_linear_11_377" x1="54.6913" y1="13.9858" x2="54.6913" y2="27.8587" gradientUnits="userSpaceOnUse">
<stop stop-color="#44B2FD"/>
<stop offset="0.927083" stop-color="#3F6DCF"/>
</linearGradient>
<linearGradient id="paint5_linear_11_377" x1="54.6913" y1="13.9858" x2="54.6913" y2="27.8587" gradientUnits="userSpaceOnUse">
<stop stop-color="#44B2FD"/>
<stop offset="0.927083" stop-color="#3F6DCF"/>
</linearGradient>
<linearGradient id="paint6_linear_11_377" x1="54.6913" y1="13.9858" x2="54.6913" y2="27.8587" gradientUnits="userSpaceOnUse">
<stop stop-color="#44B2FD"/>
<stop offset="0.927083" stop-color="#3F6DCF"/>
</linearGradient>
</defs>
</svg>
